<svg width="1105" height="732" fill="none" xmlns="http://www.w3.org/2000/svg"><path fill-rule="evenodd" clip-rule="evenodd" d="M38.583 693.273c51.434 51.426 134.816 51.426 186.25 0L621.492 296.67c51.443-51.436 51.443-134.839-.001-186.276-51.433-51.426-134.816-51.426-186.25 0L38.583 506.997c-51.444 51.436-51.444 134.839 0 186.276Zm444.692-71.824c51.434 51.426 134.816 51.426 186.25 0l396.655-396.603c51.45-51.437 51.45-134.84 0-186.276-51.43-51.427-134.813-51.427-186.246 0L483.275 435.173c-51.444 51.436-51.444 134.839 0 186.276Z" fill="#63BABA"/></svg>
